<?xml version="1.0" standalone="no"?>
<!DOCTYPE svg PUBLIC "-//W3C//DTD SVG 20010904//EN"
 "http://www.w3.org/TR/2001/REC-SVG-20010904/DTD/svg10.dtd">
<svg version="1.0" xmlns="http://www.w3.org/2000/svg"
 width="260.000000pt" height="260.000000pt" viewBox="0 0 260.000000 260.000000"
 preserveAspectRatio="xMidYMid meet">
<metadata>
Created by potrace 1.14, written by Peter Selinger 2001-2017
</metadata>
<g transform="translate(0.000000,260.000000) scale(0.100000,-0.100000)"
fill="#000000" stroke="none">
<path d="M0 1300 l0 -1300 1300 0 1300 0 0 1300 0 1300 -1300 0 -1300 0 0
-1300z m2253 732 l127 -128 -112 -112 -112 -112 -131 130 -130 130 110 110
c60 60 112 110 115 110 3 0 62 -58 133 -128z m-413 -282 c0 -4 -189 -196 -420
-427 -231 -232 -420 -425 -420 -430 0 -12 53 -63 66 -63 5 0 199 190 431 422
l423 423 57 -58 58 -57 -560 -561 c-514 -515 -565 -564 -625 -591 -36 -17
-143 -66 -237 -109 l-173 -77 14 31 c8 18 55 124 105 237 l92 205 562 562 561
563 33 -32 c18 -18 33 -35 33 -38z"/>
<path d="M823 718 c-37 -38 -63 -79 -93 -146 -23 -52 -40 -96 -37 -98 2 -3 51
17 108 44 76 36 115 61 146 94 45 49 45 58 2 58 -43 0 -59 10 -60 39 -1 63
-11 65 -66 9z"/>
</g>
</svg>
